<?xml version="1.0" encoding="utf-8"?>
<!-- Generator: Adobe Illustrator 15.1.0, SVG Export Plug-In . SVG Version: 6.00 Build 0)  -->
<!DOCTYPE svg PUBLIC "-//W3C//DTD SVG 1.1//EN" "http://www.w3.org/Graphics/SVG/1.1/DTD/svg11.dtd">
<svg version="1.1" id="Layer_1" xmlns="http://www.w3.org/2000/svg" xmlns:xlink="http://www.w3.org/1999/xlink" x="0px" y="0px"
	 width="171.826px" height="146.032px" viewBox="0 0 171.826 146.032" enable-background="new 0 0 171.826 146.032"
	 xml:space="preserve">
<metadata><?xpacket begin="﻿" id="W5M0MpCehiHzreSzNTczkc9d"?>
<x:xmpmeta xmlns:x="adobe:ns:meta/" x:xmptk="Adobe XMP Core 5.0-c060 61.134777, 2010/02/12-17:32:00        ">
   <rdf:RDF xmlns:rdf="http://www.w3.org/1999/02/22-rdf-syntax-ns#">
      <rdf:Description rdf:about=""
            xmlns:xmp="http://ns.adobe.com/xap/1.0/"
            xmlns:xmpGImg="http://ns.adobe.com/xap/1.0/g/img/">
         <xmp:CreatorTool>Adobe Illustrator CS5.1</xmp:CreatorTool>
         <xmp:CreateDate>2016-11-28T10:22:09-07:00</xmp:CreateDate>
         <xmp:ModifyDate>2016-11-28T10:22:09-07:00</xmp:ModifyDate>
         <xmp:MetadataDate>2016-11-28T10:22:09-07:00</xmp:MetadataDate>
         <xmp:Thumbnails>
            <rdf:Alt>
               <rdf:li rdf:parseType="Resource">
                  <xmpGImg:width>256</xmpGImg:width>
                  <xmpGImg:height>84</xmpGImg:height>
                  <xmpGImg:format>JPEG</xmpGImg:format>
                  <xmpGImg:image>/9j/4AAQSkZJRgABAgEASABIAAD/7QAsUGhvdG9zaG9wIDMuMAA4QklNA+0AAAAAABAASAAAAAEA&#xA;AQBIAAAAAQAB/+4ADkFkb2JlAGTAAAAAAf/bAIQABgQEBAUEBgUFBgkGBQYJCwgGBggLDAoKCwoK&#xA;DBAMDAwMDAwQDA4PEA8ODBMTFBQTExwbGxscHx8fHx8fHx8fHwEHBwcNDA0YEBAYGhURFRofHx8f&#xA;Hx8fHx8fHx8fHx8fHx8fHx8fHx8fHx8fHx8fHx8fHx8fHx8fHx8fHx8fHx8f/8AAEQgAVAEAAwER&#xA;AAIRAQMRAf/EAaIAAAAHAQEBAQEAAAAAAAAAAAQFAwIGAQAHCAkKCwEAAgIDAQEBAQEAAAAAAAAA&#xA;AQACAwQFBgcICQoLEAACAQMDAgQCBgcDBAIGAnMBAgMRBAAFIRIxQVEGE2EicYEUMpGhBxWxQiPB&#xA;UtHhMxZi8CRygvElQzRTkqKyY3PCNUQnk6OzNhdUZHTD0uIIJoMJChgZhJRFRqS0VtNVKBry4/PE&#xA;1OT0ZXWFlaW1xdXl9WZ2hpamtsbW5vY3R1dnd4eXp7fH1+f3OEhYaHiImKi4yNjo+Ck5SVlpeYmZ&#xA;qbnJ2en5KjpKWmp6ipqqusra6voRAAICAQIDBQUEBQYECAMDbQEAAhEDBCESMUEFURNhIgZxgZEy&#xA;obHwFMHR4SNCFVJicvEzJDRDghaSUyWiY7LCB3PSNeJEgxdUkwgJChgZJjZFGidkdFU38qOzwygp&#xA;0+PzhJSktMTU5PRldYWVpbXF1eX1RlZmdoaWprbG1ub2R1dnd4eXp7fH1+f3OEhYaHiImKi4yNjo&#xA;+DlJWWl5iZmpucnZ6fkqOkpaanqKmqq6ytrq+v/aAAwDAQACEQMRAD8A9U4q7FXYqxXzX+Y+h+XL&#xA;1LS4iuLuRFE+pmzjMwsbRjx+s3PH7Kcv9kRUgUU4qya2ube6t4rm2lSa3mRZIZo2DI6MKqysNiCO&#xA;hxVuaaGCF5pnWKGJS8kjkKqqoqWYnYADqcVYt5a/MrQNf1Z9NhjuLWWVDPpMl1GYk1C1XZp7Ut9t&#xA;Q3brxo1KHFWWYqkXmzzfY+XLaEvBNf6jdsU07SbNfUurh1HJ/TSo+FF+J2OwHvQFVGeXvMOk+YNJ&#xA;g1XSpxPaTg0NCrKymjRyKd0dDsyncHFUxxV2KuxV2KuxV2KuxV2KuxV2KuxV2KuxV2KuxV2KuxV2&#xA;KuxV2KuxV2KuxV2KsX80eZ76O+j8t+XES58y3SeozSAtBY25PH61c0/5Jx9XbwFSFUf5Z8rafoOn&#xA;yW8bPdXV05m1LULijT3U7CjSSn8Ao+FV2ApirE7iC5/LW5kvbNHn/L+dzJfWSAu+kO5q1xAoqTaE&#xA;mskY/u/tLtUYpV4km/MSZLmZWi8hQsHtrdgVfV3Q1WWVTQizBFUQ/wB79pvhoCqyPzV5R0zzHpiW&#xA;lwXtri2cTabf254T2k6fYlhbsR3HQjY7YoYpD+ZWq6Ny8t+YrB7rzsKR6VBaKVh1ZTXjcQuarCFC&#xA;kzh/7uhO4pilkXlXyrcWFxPretzrf+aL9Qt3dqCIoIgeS2lorbpCh+lz8Tb9FCVeYfL2raBq0/m3&#xA;ylAZ5JyH8weX0IVb5VG88A6JdoPokGx3ocVZR5e8w6T5h0i31bSpxPZ3AJVqEMrA0ZHU7q6Nsync&#xA;HFUxxV2KuxV2KuxV2KuxV2KuxV2KuxV2KuxV2KuxV2KuxV2KuxV2KuxV2KuxVjfmryrcX9xBreiT&#xA;rYeaLBStpdsCYp4ieTWl2q7vC5+lD8S79VVTy75zsNUsLuW9X9E6hpNV1zT7p1VrRlXkWZzRWhZR&#xA;ySUfCy7+ICrE4orv80btLm5SS2/Li2kD2tq4aOTWZI2qs0ymjLZqwrHGd5D8TbUAUqc8F5+Vd495&#xA;ZpJdflvdSF72yQGSTRpJDVp4FFWa0ZjWSMfY+0vcFVlHmrz9pujabZS2C/pnVNZovl/TLR1Z7x2X&#xA;kGVxVVhVTyklPwqu/gCoY4fycj1nTrjUPNN88/na8aOePXLQtH+jpISWgh08VBSGEt85DVm3pRSm&#xA;Pknztqn6Ubyb5yVLXzdaoXtrlBxt9Ut1/wCPm26AOAP3kfbcgUqFULNZ1nVPOGqXHljyxcPaaVaO&#xA;YfMfmOE7of2rKyboZyP7yTpEP8vopZjo2jaXoul2+l6XbpaWFogjggjGwH6ySdyTuTucUIzFXYq7&#xA;FXYq7FXYq7FXYq7FXYq7FXYq7FXYq7FXYq7FXYq7FXYq7FXYq7FXYqwr8yPy2sfNtrHcRcItYteJ&#xA;iMnL6vdRRyCYWd8qENLbu6A0/ZO47gqpv5S8z2mtWksBtzpuq6aVg1PR5KepbSU+ECmzxON45F+F&#xA;l6dwFVnnPzZZaDZRxNbtqWq6kxt9K0aKhlu5SN132WNRvI7fCq9ewKrzzyv5Pufyvuj5j1OCG80+&#xA;/jMeqyWiOf0KrzPPwtFYu31ENL+8AAYEc9xUKpewwzQzwpNC6ywyqHjkQhlZWFQykbEEdDih5j5z&#xA;s7f8ytXi8u6WvCw0K6WbU/NMRKy21xGQfqunyDrOdvVbdUHUFqAKXoujaNpei6Xb6XpdulpYWiCO&#xA;CCMbAfrJJ3JO5O5xQjMVdirsVdirsVdirsVdirsVdirsVdirsVdirsVdirsVdirsVdirsVdirsVd&#xA;irsVdirG/NXlW4v7iDW9EnWw80WClbS7YExTxE8mtLtV3eFz9KH4l36qqPlDyfdWN3P5h8wzpqHm&#xA;y/QJcXKA+jbQ1qtpZq26RL3P2nPxN7KspZVZSrAFSKEHcEHFXn955A8z2rvonlvV10zyfqDl7yEB&#xA;vrdipqZYtOf7KJPX9r+63KdQApZro2jaXoul2+l6XbpaWFogjggjGwH6ySdyTuTucUIzFXYq7FXY&#xA;q7FXYq7FXYq7FXYq7FXYq7FXYq7FXYq7FXYq7FXYq7FXYq7FUu17zFoXl+wOo63fw6dYhljNzcuI&#xA;4wzfZBZtt8VRlpd2t5aw3dpKk9rcxrLbzxkMjxuAyOrDYqwNQcVatby0u4mltZkniWSSJnjYMBJC&#xA;5jkQkftI6FWHYjFUvXzb5YbzC3ltdUtm19E9R9LEim4VOIfk0YPIDiQd+2Kpibq2F0toZUF0yGVY&#xA;OQ5mNSFZwvXiCwFffFUFr/mXy/5dsRf67qEGmWRcRC4uXWNObAlV5NtUhTirHP8Aldf5R/8AU36V&#xA;/wBJUX9cVTvy5518peZhOfL2r2uqi14/WDaSrKE5148itaV4nFUs1H82/wAsdNvp7C/80aba3tq7&#xA;RXFvLcxq8bqaMrKTUEHFU48u+bPLXmW1lutA1O21S2hf0pZrWRZVV6BuJKk70IOKpTqn5r/lppWo&#xA;T6dqXmbTrO+tm4XFtNcRpIjDsyk1BxVNPLnm/wAr+ZYZp/L+q22qw27BJ5LWRZVRiKgMVJoaYqm+&#xA;KuxV2KuxV2KuxV2KuxV2KuxV2KuxV2KuxV2KuxV2KuxV2KuxVJ/OPlbTPNfljUvLuprys9SgaF2o&#xA;CUY7pItf2o3AdfcYq+cPJX5zXv5c/lX5q8pa/IF83eTp30/RoX39UXDMIGXl9tIW5P8A8Y+NMVUf&#xA;yP8AzE1P8rDrflf8xGe2WewHmbSjM1XkaaL1JYFLbmST+XtIr+OKs2/5xo8u3t1b67+bHmQKmr+a&#xA;5pZIHf4RDYo5JoTTijOu1f2UU4q8svPzX83SfmhL+c9tDLL5D0/UF8ugAmjWTqWYBPegm36SFRir&#xA;6v1vy95T86aHBBq1pBq+jz+nd26vVo2qpMci0I/Zfb54q+cPzp8nfl7J5gsPyx/LvyxY/wCMtTZG&#xA;v71FYrYW1OdWarBWZPibb4U92XFX0D+Wv5d6J5A8qWvl/Sl5emPUvLsgCS4uGHxyvTx6KOy0GKvl&#xA;631b8uNP/Nz8yv8AGnlK+80+rqv+gfUbZbn6vxln9Xnylh4+pVKda8Tir6F/JLUvIt/oF/J5O8t3&#xA;nlmxW743FpfW4tnkl9ND6iqJJqjjQVr2xV4Be6p+Xlh+d/5hnzn5VvfNEUl3GLKOxtluTAwB5lwZ&#xA;YePIEU69MVe9fkhqfkG/0rU38m+WLzyxbJOguoL63Fs0shT4XUCWbkANuuKvSsVdirsVdirsVdir&#xA;sVdirsVdirsVdirsVdirsVdirsVdirsVdirsVeQefPyD03zR+b3l7zo4jFjary122brcSWtDZmn7&#xA;XI0WSv7CAd8VVPz7/JCP8yU0Ke2dbbUNPu0iu7g0DNp0zD1wPF46c0B/yh3xVM/zg8u+cJfyxbyl&#xA;+Xunx+pdRx6a376OBbewVOLhTIy1LIojp4EnFWAQ/wDOHGgDRF0+XzVq4BjBltkeP6p61ASwiKD4&#xA;ee4rvirIvy60/wDOjyl+UN1oE2kRXvmfS2a18vMbqAwvbvvHJIxcUEFTRTuRxXxIVecfl75H/wCc&#xA;mfI9/quqWPlnR9S1rWpDJf6vqdys10wY8igeO6hUKz/E3w1J6nZaKvbvyx1T85r2fUB+Ymj6ZpcK&#xA;LGdObTXLF2Jb1BJWe46DjTpiry+18q/85DeT/wAwvO2s+TtB0u+0/wAz3/1gSahOpPpxPK0RRUuI&#xA;CtROeXKvbpir1/8ALS//ADOvdKupPzC02x0zU1n42kWnMWjaDgp5NWa4+LnyHUfLFXkcvlT/AJyA&#xA;8rfmh5x8x+TNC0y/sfMVwjLJqE6/3cQPEqiXEDKSWNeWKvWPyz1D81L2xvW/MPTLDTL1JVFjHpzF&#xA;keLj8Res1xvy9xirM8VdirsVdirsVdirsVdirsVdirsVdirsVdirsVdirsVdirsVdirsVdirsVY4&#xA;v5i+SDq50g6xbpqIuDZCGQlK3KniYFdgEaSu3EGuKpzNqmnw6jbabLOqX95HLNa25+08duUErL7I&#xA;Zkr88VSPWfzM8haLq/6H1PW7a21IBTJbsxJiEn2PWZQVi5V29QiuKp5Nqmnw6jbabLOqX95HLNa2&#xA;5+08duUErL7IZkr88VSb/lYnkz9NnQv0kv6WEvoG09OXnzMnpfyUpz25Vp74qmkmvaPHrcOhPdxr&#xA;q9xbvdw2RP7xoInVHcewZwP9o4qqnVNPGqLpRnX9INAbpbb9swq4jL/LkwGKpd5a85+XfMsl/Ho9&#xA;ybhtNm9C7rHJGA5BIKl1XkrU2K7HFU7xV2KuxV2KuxV2KuxV2KuxV2KuxV2KuxV2KuxV2KuxV2Ku&#xA;xV2KuxV2KuxV2KvINT8j+edR0nX/ACkNOtoNN1zW59QOvSXSkwWz3aXKtHbKjO01I6LVlAahrtir&#xA;O9V0LULnz/5e1uIKbDTbDVLa6YtRhJePZtFxXuKWz18MVYVqXlf8zdIvPMdn5TiiWLXtT/S9vrgn&#xA;tw8bSxxpNbXdvc29xzjHBuBj+KnEfDvirNdV0LULnz/5e1uIKbDTbDVLa6YtRhJePZtFxXuKWz18&#xA;MVcmg6gPzIm18hf0e+jxWCty+P1kupJSOPhxcb4qwfV/y1863fnS48/Q3cK61Z6jANK0whSr6Vbc&#xA;oGhNwTyj+sRXE8pWnHmVr02VZRrmneZrb8w7TzDpmmLqVl+ipNOmX6wkDo73KTBqODyHFO2Kso0/&#xA;RtH01rhtOsbeya7kM10beJIjLK25kk4AcmNep3xVGYq7FXYq7FXYq7FXYq7FXYq7FXYq7FXYq7FX&#xA;Yq7FXYq7FXYq7FXYq7FXYq7FXYq7FXYq7FXYq7FXYq7FXYq7FXYq7FXYq7FXYq7FXYq7FXYq7FXY&#xA;q7FXYq7FXYq7FXYq7FXYq//Z</xmpGImg:image>
               </rdf:li>
            </rdf:Alt>
         </xmp:Thumbnails>
      </rdf:Description>
      <rdf:Description rdf:about=""
            xmlns:xmpTPg="http://ns.adobe.com/xap/1.0/t/pg/"
            xmlns:stDim="http://ns.adobe.com/xap/1.0/sType/Dimensions#"
            xmlns:xmpG="http://ns.adobe.com/xap/1.0/g/">
         <xmpTPg:NPages>1</xmpTPg:NPages>
         <xmpTPg:HasVisibleTransparency>False</xmpTPg:HasVisibleTransparency>
         <xmpTPg:HasVisibleOverprint>False</xmpTPg:HasVisibleOverprint>
         <xmpTPg:MaxPageSize rdf:parseType="Resource">
            <stDim:w>171.826172</stDim:w>
            <stDim:h>146.031738</stDim:h>
            <stDim:unit>Pixels</stDim:unit>
         </xmpTPg:MaxPageSize>
         <xmpTPg:PlateNames>
            <rdf:Seq>
               <rdf:li>Cyan</rdf:li>
               <rdf:li>Magenta</rdf:li>
               <rdf:li>Yellow</rdf:li>
               <rdf:li>Black</rdf:li>
            </rdf:Seq>
         </xmpTPg:PlateNames>
         <xmpTPg:SwatchGroups>
            <rdf:Seq>
               <rdf:li rdf:parseType="Resource">
                  <xmpG:groupName>Default Swatch Group</xmpG:groupName>
                  <xmpG:groupType>0</xmpG:groupType>
                  <xmpG:Colorants>
                     <rdf:Seq>
                        <rdf:li rdf:parseType="Resource">
                           <xmpG:swatchName>PANTONE 425</xmpG:swatchName>
                           <xmpG:type>PROCESS</xmpG:type>
                           <xmpG:tint>100.000000</xmpG:tint>
                           <xmpG:mode>RGB</xmpG:mode>
                           <xmpG:red>48</xmpG:red>
                           <xmpG:green>60</xmpG:green>
                           <xmpG:blue>66</xmpG:blue>
                        </rdf:li>
                     </rdf:Seq>
                  </xmpG:Colorants>
               </rdf:li>
            </rdf:Seq>
         </xmpTPg:SwatchGroups>
      </rdf:Description>
      <rdf:Description rdf:about=""
            xmlns:dc="http://purl.org/dc/elements/1.1/">
         <dc:format>image/svg+xml</dc:format>
         <dc:title>
            <rdf:Alt>
               <rdf:li xml:lang="x-default">logo_wazee_wht_sm</rdf:li>
            </rdf:Alt>
         </dc:title>
      </rdf:Description>
      <rdf:Description rdf:about=""
            xmlns:xmpMM="http://ns.adobe.com/xap/1.0/mm/"
            xmlns:stRef="http://ns.adobe.com/xap/1.0/sType/ResourceRef#"
            xmlns:stEvt="http://ns.adobe.com/xap/1.0/sType/ResourceEvent#">
         <xmpMM:RenditionClass>proof:pdf</xmpMM:RenditionClass>
         <xmpMM:DocumentID>xmp.did:F87F1174072068118C14DBCE757FEEFE</xmpMM:DocumentID>
         <xmpMM:InstanceID>xmp.iid:F87F1174072068118C14DBCE757FEEFE</xmpMM:InstanceID>
         <xmpMM:OriginalDocumentID>uuid:023b14dc-fb64-5340-b6c0-ee6b92b711f8</xmpMM:OriginalDocumentID>
         <xmpMM:DerivedFrom rdf:parseType="Resource">
            <stRef:instanceID>xmp.iid:F87F1174072068118083ACCC20017F07</stRef:instanceID>
            <stRef:documentID>xmp.did:F87F1174072068118083ACCC20017F07</stRef:documentID>
            <stRef:originalDocumentID>uuid:023b14dc-fb64-5340-b6c0-ee6b92b711f8</stRef:originalDocumentID>
            <stRef:renditionClass>proof:pdf</stRef:renditionClass>
         </xmpMM:DerivedFrom>
         <xmpMM:History>
            <rdf:Seq>
               <rdf:li rdf:parseType="Resource">
                  <stEvt:action>saved</stEvt:action>
                  <stEvt:instanceID>xmp.iid:02801174072068118083E31999953E59</stEvt:instanceID>
                  <stEvt:when>2015-07-29T12:08:17-06:00</stEvt:when>
                  <stEvt:softwareAgent>Adobe Illustrator CS5.1</stEvt:softwareAgent>
                  <stEvt:changed>/</stEvt:changed>
               </rdf:li>
               <rdf:li rdf:parseType="Resource">
                  <stEvt:action>saved</stEvt:action>
                  <stEvt:instanceID>xmp.iid:F87F1174072068118083D539ED696555</stEvt:instanceID>
                  <stEvt:when>2015-07-30T08:36:26-06:00</stEvt:when>
                  <stEvt:softwareAgent>Adobe Illustrator CS5.1</stEvt:softwareAgent>
                  <stEvt:changed>/</stEvt:changed>
               </rdf:li>
               <rdf:li rdf:parseType="Resource">
                  <stEvt:action>saved</stEvt:action>
                  <stEvt:instanceID>xmp.iid:F77F1174072068118083ACCC20017F07</stEvt:instanceID>
                  <stEvt:when>2016-01-22T12:24:47-07:00</stEvt:when>
                  <stEvt:softwareAgent>Adobe Illustrator CS5.1</stEvt:softwareAgent>
                  <stEvt:changed>/</stEvt:changed>
               </rdf:li>
               <rdf:li rdf:parseType="Resource">
                  <stEvt:action>saved</stEvt:action>
                  <stEvt:instanceID>xmp.iid:F87F1174072068118083ACCC20017F07</stEvt:instanceID>
                  <stEvt:when>2016-01-22T12:26:46-07:00</stEvt:when>
                  <stEvt:softwareAgent>Adobe Illustrator CS5.1</stEvt:softwareAgent>
                  <stEvt:changed>/</stEvt:changed>
               </rdf:li>
               <rdf:li rdf:parseType="Resource">
                  <stEvt:action>saved</stEvt:action>
                  <stEvt:instanceID>xmp.iid:F87F1174072068118C14DBCE757FEEFE</stEvt:instanceID>
                  <stEvt:when>2016-11-28T10:22:09-07:00</stEvt:when>
                  <stEvt:softwareAgent>Adobe Illustrator CS5.1</stEvt:softwareAgent>
                  <stEvt:changed>/</stEvt:changed>
               </rdf:li>
            </rdf:Seq>
         </xmpMM:History>
      </rdf:Description>
      <rdf:Description rdf:about=""
            xmlns:pdf="http://ns.adobe.com/pdf/1.3/">
         <pdf:Producer>Adobe PDF library 9.90</pdf:Producer>
      </rdf:Description>
   </rdf:RDF>
</x:xmpmeta>
                                                                                                    
                                                                                                    
                                                                                                    
                                                                                                    
                                                                                                    
                                                                                                    
                                                                                                    
                                                                                                    
                                                                                                    
                                                                                                    
                                                                                                    
                                                                                                    
                                                                                                    
                                                                                                    
                                                                                                    
                                                                                                    
                                                                                                    
                                                                                                    
                                                                                                    
                                                                                                    
                           
<?xpacket end="w"?>
	</metadata>
<g id="Layer_2" display="none">
	<rect x="-7.539" y="-6.746" display="inline" fill="#484759" width="186.11" height="159.524"/>
</g>
<g id="Layer_5" display="none">
	
		<image display="inline" overflow="visible" enable-background="new    " width="1223" height="378" id="wazee.logo.connect_xA0_Image" xlink:href="F76750CA.png"  transform="matrix(0.399 0 0 0.3968 -0.4758 -2)">
	</image>
</g>
<g id="w_diamonds">
	<g>
		<path fill="#231F20" d="M130.047,5.034l18.663,18.664l-18.663,18.664l-18.664-18.664L130.047,5.034 M130.047,2.206l-21.492,21.492
			l21.492,21.492l21.492-21.492L130.047,2.206L130.047,2.206z"/>
	</g>
	<g>
		<path fill="#231F20" d="M109.979,25.101l18.664,18.664l-18.664,18.664L91.316,43.765L109.979,25.101 M109.979,22.272
			L88.487,43.765l21.492,21.492l21.492-21.492L109.979,22.272L109.979,22.272z"/>
	</g>
	<g>
		<path fill="#231F20" d="M69.848,25.101l18.663,18.664L69.848,62.428L51.184,43.765L69.848,25.101 M69.848,22.272L48.356,43.765
			l21.492,21.492l21.492-21.492L69.848,22.272L69.848,22.272z"/>
	</g>
	<g>
		<path fill="#231F20" d="M49.771,5.034l18.664,18.664L49.771,42.361L31.108,23.698L49.771,5.034 M49.771,2.206L28.28,23.698
			L49.771,45.19l21.492-21.492L49.771,2.206L49.771,2.206z"/>
	</g>
	<g>
		<path fill="#231F20" d="M89.906,5.034l18.664,18.664L89.906,42.361L71.242,23.698L89.906,5.034 M89.906,2.206L68.414,23.698
			L89.906,45.19l21.492-21.492L89.906,2.206L89.906,2.206z"/>
	</g>
</g>
<g id="wazee_digital_paths">
	<path d="M3.031,84.038l14.31,28.434l9.004-17.65l9.011,17.668l14.249-28.451h-5.66l-8.6,17.666l-9.01-17.666l-9.002,17.676
		l-8.58-17.676H3.031z"/>
	<path d="M62.434,84.01l-14.559,28.449h5.804l2.117-4.814h13.061l2.5,4.814h5.47L62.434,84.01z M62.519,94.829l4.087,8.043
		l-8.368,0.006L62.519,94.829z"/>
	<path d="M80.35,84.038v4.625h18.573l-18.683,23.791h28.713v-4.791H90.055l18.67-23.625H80.35z"/>
	<path d="M118.919,84.038v28.416h19.038v-4.824h-14.21l-0.021-7.049h14.232v-4.689h-14.232v-7.277h14.224v-4.576H118.919z"/>
	<path d="M150.104,84.038v28.416h19.038v-4.824h-14.21l-0.021-7.049h14.232v-4.689h-14.232v-7.277h14.224v-4.576H150.104z"/>
	<path d="M45.916,143.014c1.187,0,1.99-0.033,2.412-0.1c0.421-0.066,0.883-0.199,1.388-0.398c0.861-0.324,1.617-0.807,2.268-1.445
		c0.638-0.617,1.13-1.336,1.474-2.152c0.345-0.816,0.518-1.672,0.518-2.564c0-1.252-0.313-2.406-0.938-3.465
		s-1.468-1.861-2.526-2.408c-1.06-0.545-2.498-0.816-4.316-0.816h-4.508v13.35H45.916z M47.993,131.473
		c0.414,0.07,0.853,0.213,1.315,0.43s0.872,0.496,1.229,0.832c0.97,0.906,1.455,2.078,1.455,3.514c0,1.461-0.473,2.67-1.416,3.627
		c-0.294,0.293-0.617,0.541-0.972,0.742c-0.354,0.199-0.796,0.367-1.325,0.496c-0.53,0.133-1.273,0.197-2.23,0.197h-2.45v-9.943
		h2.393C46.911,131.368,47.578,131.403,47.993,131.473z"/>
	<path d="M62.207,143.034h1.914v-13.369h-1.914V143.034z"/>
	<path d="M80.135,138.153h2.574v2.785l-0.182,0.057c-1.065,0.352-1.981,0.527-2.747,0.527c-1.575,0-2.864-0.482-3.866-1.445
		s-1.502-2.205-1.502-3.723c0-1.449,0.5-2.67,1.502-3.666s2.233-1.492,3.694-1.492c1.569,0,3.151,0.461,4.747,1.387v-1.953
		c-1.034-0.434-1.889-0.73-2.565-0.895c-0.676-0.162-1.391-0.244-2.144-0.244c-2.067,0-3.786,0.664-5.158,1.992
		c-1.372,1.326-2.058,2.988-2.058,4.986c0,1.895,0.662,3.488,1.985,4.779c1.324,1.291,3.093,1.938,5.308,1.938
		c1.62,0,3.254-0.357,4.899-1.072v-5.664h-4.488V138.153z"/>
	<path d="M93.258,143.034h1.914v-13.369h-1.914V143.034z"/>
	<path d="M102.821,131.348h4.584v11.686h1.924v-11.686h4.661v-1.703h-11.169V131.348z"/>
	<path d="M118.184,143.034h1.967l1.67-3.963h5.704l1.782,3.963h1.959l-5.995-13.447h-1.345L118.184,143.034z M122.581,137.368
		l2.001-4.842l2.157,4.842H122.581z"/>
	<path d="M138.552,143.034h7.934v-1.742h-6.021v-11.627h-1.913V143.034z"/>
</g>
<g>
	<path d="M148.562,130.232c0.156-0.357,0.372-0.667,0.642-0.931c0.27-0.263,0.584-0.468,0.944-0.617
		c0.359-0.149,0.743-0.225,1.146-0.225s0.784,0.075,1.141,0.225c0.357,0.149,0.671,0.354,0.938,0.617
		c0.268,0.264,0.481,0.573,0.639,0.931s0.237,0.742,0.237,1.157c0,0.426-0.08,0.818-0.237,1.179
		c-0.157,0.359-0.371,0.672-0.639,0.938c-0.267,0.264-0.58,0.471-0.938,0.617c-0.356,0.146-0.737,0.22-1.141,0.22
		s-0.787-0.073-1.146-0.22c-0.36-0.146-0.675-0.354-0.944-0.617c-0.27-0.266-0.485-0.578-0.642-0.938
		c-0.159-0.36-0.236-0.753-0.236-1.179C148.326,130.974,148.403,130.589,148.562,130.232z M149.046,132.395
		c0.122,0.305,0.296,0.572,0.513,0.797c0.219,0.228,0.474,0.405,0.772,0.533c0.295,0.127,0.617,0.194,0.964,0.194
		c0.342,0,0.659-0.067,0.953-0.194c0.293-0.128,0.55-0.306,0.768-0.533c0.218-0.225,0.389-0.492,0.512-0.797
		c0.122-0.308,0.186-0.645,0.186-1.006c0-0.351-0.063-0.679-0.186-0.985c-0.123-0.302-0.294-0.567-0.512-0.79
		c-0.218-0.222-0.475-0.398-0.768-0.528c-0.294-0.13-0.611-0.193-0.953-0.193c-0.347,0-0.669,0.063-0.964,0.193
		c-0.299,0.13-0.554,0.307-0.772,0.528c-0.217,0.223-0.391,0.488-0.513,0.79c-0.124,0.307-0.185,0.635-0.185,0.985
		C148.861,131.75,148.922,132.087,149.046,132.395z M151.475,129.681c0.409,0,0.713,0.079,0.908,0.243
		c0.199,0.163,0.297,0.41,0.297,0.74c0,0.31-0.086,0.537-0.26,0.682c-0.173,0.145-0.389,0.229-0.644,0.256l0.982,1.519h-0.574
		l-0.938-1.479h-0.567v1.479h-0.535v-3.439H151.475z M151.239,131.209c0.12,0,0.234-0.006,0.344-0.012
		c0.105-0.01,0.203-0.031,0.286-0.068c0.085-0.036,0.151-0.094,0.201-0.169s0.075-0.182,0.075-0.319
		c0-0.116-0.024-0.208-0.066-0.274c-0.045-0.068-0.104-0.12-0.176-0.159c-0.07-0.034-0.15-0.061-0.242-0.075
		c-0.094-0.012-0.183-0.019-0.272-0.019h-0.708v1.096H151.239z"/>
</g>
</svg>
